<?xml version="1.0" encoding="utf-8"?>
<!-- Generator: Adobe Illustrator 16.0.0, SVG Export Plug-In . SVG Version: 6.00 Build 0)  -->
<!DOCTYPE svg PUBLIC "-//W3C//DTD SVG 1.1//EN" "http://www.w3.org/Graphics/SVG/1.1/DTD/svg11.dtd">
<svg version="1.1" id="Layer_1" xmlns="http://www.w3.org/2000/svg" xmlns:xlink="http://www.w3.org/1999/xlink" x="0px" y="0px"
	 width="566.93px" height="566.93px" viewBox="0 0 566.93 566.93" enable-background="new 0 0 566.93 566.93" xml:space="preserve">
<path fill="none" stroke="#2C6899" stroke-width="10" stroke-miterlimit="10" d="M322.969,126.128c0,0-83.779-18.517-139.986,15.869
	s-65.018,94.968-65.018,94.968"/>
<path fill="none" stroke="#2C6899" stroke-width="10" stroke-miterlimit="10" d="M393.547,146.874c0,0,27.979,6.236,47.709,32.545
	c23.434,31.249,19.709,59.545,19.709,59.545"/>
<path fill="none" stroke="#2C6899" stroke-width="10" stroke-miterlimit="10" d="M121.969,261.563c0,0-84.004-18.599-82.004,63.401
	s66,54,66,54c-2.881,61.327,87.66,138,173.5,138c67.647-1.24,161.118-31.882,180.117-135.201
	c17.062,6.917,69.083-11.478,69.091-61.141c0.012-76.658-74.71-60.06-74.708-60.06"/>
<path fill="none" stroke="#2C6899" stroke-width="10" stroke-miterlimit="10" d="M331.965,61.965c0,0,49,10,40,64s-65,52-65,52"/>
<ellipse fill="#2C6899" cx="222.457" cy="266.022" rx="20.508" ry="21.443"/>
<ellipse fill="#2C6899" cx="347.482" cy="266.021" rx="20.508" ry="21.443"/>
<path fill="none" stroke="#2C6899" stroke-width="10" stroke-miterlimit="10" d="M352.482,367.25c0,0-11.466,42.864-68.018,42.792
	c-51.257-0.065-68.008-38.792-68.008-38.792"/>
</svg>
