<?xml version="1.0" encoding="utf-8"?>
<!-- Generator: Adobe Illustrator 16.0.0, SVG Export Plug-In . SVG Version: 6.00 Build 0)  -->
<!DOCTYPE svg PUBLIC "-//W3C//DTD SVG 1.1//EN" "http://www.w3.org/Graphics/SVG/1.1/DTD/svg11.dtd">
<svg version="1.1" id="Layer_1" xmlns="http://www.w3.org/2000/svg" xmlns:xlink="http://www.w3.org/1999/xlink" x="0px" y="0px"
	 width="566.93px" height="566.93px" viewBox="0 0 566.93 566.93" enable-background="new 0 0 566.93 566.93" xml:space="preserve">
<path fill="#F29933" d="M480.822,232.14c0-20.418-11.152-38.808-28.61-48.501c1.089-4.741,1.638-9.589,1.635-14.453
	c0-38.07-33.017-68.893-71.941-64.318c-13.961-27.477-43.544-49.387-74.742-49.387c-38.554,0-76.406,29.412-85.319,65.959
	c-35.761-0.29-63.352,29.836-63.352,65.734c0,35.705,33.047,64.751,68.746,64.751h98.909c13.89,0,25.184,11.29,25.184,25.173v53.952
	c0,5.96,4.833,10.794,10.795,10.794s10.795-4.834,10.795-10.794c0-23.909,28.525-43.157,52.143-43.157
	C455.807,287.894,480.822,262.884,480.822,232.14L480.822,232.14z"/>
<path fill="none" stroke="#2C6899" stroke-width="10" stroke-miterlimit="10" d="M485.49,231.519
	c0-21.313-11.642-40.509-29.863-50.626c1.136-4.948,1.708-10.009,1.705-15.085c0-39.738-34.463-71.912-75.093-67.137
	c-14.573-28.68-44.409-47.375-76.974-47.375c-40.244,0-74.536,27.569-83.839,65.718c-37.329-0.303-68.215,30.1-68.215,67.571
	c0,37.269,30.32,67.588,67.583,67.588h103.244c14.497,0,26.287,11.785,26.287,26.276v56.315c0,6.222,5.045,11.268,11.268,11.268
	s11.268-5.046,11.268-11.268c0-24.956,29.775-45.048,54.428-45.048C459.379,289.716,485.49,263.61,485.49,231.519L485.49,231.519z"
	/>
<path fill="#2C6899" d="M305.266,163.937h18.772v22.535h-18.772V163.937z M267.723,163.937h18.766v22.535h-18.766V163.937z
	 M342.814,163.937h18.777v22.535h-18.777V163.937z"/>
<path fill="none" stroke="#2C6899" stroke-width="10" stroke-miterlimit="10" d="M414.502,548.216c0,0-11.999-53.998,0-118.494
	s181.49-146.992,85.495-332.983C375.503-68.253,88.918,22.639,84.642,159.937c10.78,72.017-60.121,105.293-67.621,132.292
	s38.758,12.306,40.505,30.587s-21.636,26.38-20.92,39.279s21.515,5.716,23.414,18.13s-25.348-2.187-24.5,18.499
	c23.234,32.259-1.397,33.079-2.5,65.497c-1.205,35.415,126.067,5.409,128.509,48.498c5.151,32.87,9.542,46.885,9.542,46.885"/>
</svg>
