<?xml version="1.0" encoding="utf-8"?>
<!-- Generator: Adobe Illustrator 16.0.0, SVG Export Plug-In . SVG Version: 6.00 Build 0)  -->
<!DOCTYPE svg PUBLIC "-//W3C//DTD SVG 1.1//EN" "http://www.w3.org/Graphics/SVG/1.1/DTD/svg11.dtd">
<svg version="1.1" id="Capa_1" xmlns="http://www.w3.org/2000/svg" xmlns:xlink="http://www.w3.org/1999/xlink" x="0px" y="0px"
	 width="566.929px" height="566.929px" viewBox="-27.464 -27.464 566.929 566.929"
	 enable-background="new -27.464 -27.464 566.929 566.929" xml:space="preserve">
<g display="none">
	<path display="inline" d="M202.515,370.882l-12.626,73.615L256,409.741l66.111,34.756l-12.626-73.615l53.483-52.135l-73.914-10.74
		L256,241.029l-33.056,66.978l-73.914,10.74L202.515,370.882z M242.866,335.427L256,308.814l13.134,26.612l29.367,4.267
		l-21.25,20.715l5.017,29.249L256,375.848l-26.268,13.81l5.017-29.249l-21.25-20.715L242.866,335.427z"/>
	<path display="inline" d="M91,346c0,91.533,74.019,166,165,166c90.981,0,165-74.467,165-166c0-85.924-66.023-156.707-150-164.311
		V151h51.213L391,82.213V30h30V0H91v30h30v52.213L189.787,151H241v30.689C157.023,189.293,91,260.076,91,346z M331,30h30v39.787
		l-30,30V30z M181,99.787l-30-30V30h30V99.787z M211,121V30h90v91H211z M256,211c74.439,0,135,60.561,135,135
		c0,74.991-60.561,136-135,136c-74.439,0-135-61.009-135-136C121,271.561,181.561,211,256,211z"/>
</g>
<g>
	<g>
		<path fill="none" stroke="#306799" stroke-width="10" stroke-miterlimit="10" d="M256.119,511c-27.124-0.026-159.5-4.5-165-164.5
			c-5.017-145.935,150-164.811,150-164.811V151h-51.213l-68.787-68.787V30h-30V0h165H256h165v30h-30v52.213L322.213,151H271v30.689
			c0,0,155.017,18.876,150,164.811C415.5,506.5,276.536,510.999,256.119,511"/>
	</g>
	<polygon fill="none" stroke="#306799" stroke-width="10" stroke-miterlimit="10" points="331,30 361,30 361,69.787 331,99.787 	"/>
	<polygon fill="none" stroke="#306799" stroke-width="10" stroke-miterlimit="10" points="180,30 150,30 150,69.787 180,99.787 	"/>
	<rect x="211" y="30" fill="none" stroke="#306799" stroke-width="10" stroke-miterlimit="10" width="90" height="91"/>
	<circle fill="none" stroke="#306799" stroke-width="10" stroke-miterlimit="10" cx="255.354" cy="346.99" r="133.206"/>
	<polygon fill="none" stroke="#306799" stroke-width="10" stroke-miterlimit="10" points="256.06,402.651 197.837,433.26 
		208.956,368.428 161.853,322.514 226.948,313.053 256.06,254.069 285.172,313.053 350.266,322.514 303.164,368.428 314.282,433.26 
			"/>
</g>
</svg>
