<svg id="Capa_1" enable-background="new 0 0 512 512" height="512" viewBox="0 0 512 512" width="512" xmlns="http://www.w3.org/2000/svg"><g><path d="m202.515 370.882-12.626 73.615 66.111-34.756 66.111 34.756-12.626-73.615 53.484-52.135-73.914-10.74-33.055-66.978-33.056 66.978-73.914 10.74zm40.351-35.455 13.134-26.612 13.134 26.612 29.367 4.267-21.25 20.714 5.017 29.249-26.268-13.809-26.268 13.809 5.017-29.249-21.25-20.714z"/><path d="m91 346c0 91.533 74.019 166 165 166s165-74.467 165-166c0-85.924-66.023-156.707-150-164.311v-30.689h51.213l68.787-68.787v-52.213h30v-30h-330v30h30v52.213l68.787 68.787h51.213v30.689c-83.977 7.604-150 78.387-150 164.311zm240-316h30v39.787l-30 30zm-150 69.787-30-30v-39.787h30zm30 21.213v-91h90v91zm45 90c74.439 0 135 60.561 135 135 0 74.991-60.561 136-135 136s-135-61.009-135-136c0-74.439 60.561-135 135-135z"/></g></svg>