<?xml version="1.0" encoding="utf-8"?>
<!-- Generator: Adobe Illustrator 16.0.0, SVG Export Plug-In . SVG Version: 6.00 Build 0)  -->
<!DOCTYPE svg PUBLIC "-//W3C//DTD SVG 1.1//EN" "http://www.w3.org/Graphics/SVG/1.1/DTD/svg11.dtd">
<svg version="1.1" id="Layer_1" xmlns="http://www.w3.org/2000/svg" xmlns:xlink="http://www.w3.org/1999/xlink" x="0px" y="0px"
	 width="566.93px" height="566.93px" viewBox="0 0 566.93 566.93" enable-background="new 0 0 566.93 566.93" xml:space="preserve">
<g>
	<path fill="#F7832D" stroke="#F7832D" stroke-miterlimit="10" d="M445.12,176.229c-0.01,24.857,20.134,45.017,44.991,45.027
		c24.856,0.01,45.017-20.133,45.026-44.991c0-0.012,0-0.024,0-0.036c0.011-24.858-20.134-45.017-44.99-45.027
		c-24.857-0.01-45.018,20.133-45.027,44.991C445.12,176.204,445.12,176.216,445.12,176.229z"/>
	<path fill="#2C6899" d="M490.13,234.524c-32.146,0-58.297-26.149-58.297-58.292c0-32.146,26.149-58.3,58.297-58.3
		c32.146,0,58.296,26.154,58.296,58.3C548.412,208.379,522.259,234.524,490.13,234.524z M490.13,144.507
		c-17.491,0-31.722,14.231-31.722,31.726c0,17.486,14.229,31.717,31.722,31.717c17.485,0,31.717-14.231,31.721-31.721
		C521.851,158.738,507.62,144.507,490.13,144.507z"/>
	<path fill="#2C6899" d="M476.859,176.232c-0.008,7.329,5.928,13.276,13.256,13.284c7.329,0.008,13.275-5.927,13.284-13.256
		c0-0.009,0-0.019,0-0.028c0.007-7.328-5.929-13.275-13.257-13.283c-7.328-0.008-13.275,5.927-13.283,13.256
		C476.859,176.214,476.859,176.224,476.859,176.232z"/>
	<path fill="#324654" d="M81.233,186.463c4.888,4.888,13.247,4.452,18.95-1.251s6.363-14.288,1.25-18.95
		c-1.718-6.796-10.493-9.42-17.636-6.629s-11.54,10.563-9.822,17.359C74.974,180.942,77.905,183.873,81.233,186.463z"/>
	<g>
		<ellipse fill="#2C6899" cx="34.048" cy="222.876" rx="16.917" ry="15.648"/>
		<ellipse fill="#2C6899" cx="88.52" cy="174.184" rx="16.917" ry="15.648"/>
		<path fill="#2C6899" d="M37.89,221.255"/>
		<path fill="none" stroke="#2C6899" stroke-width="10" stroke-miterlimit="10" d="M31.965,229.352c0,0-26.098,1.795-15.834,29.969
			c9.889,27.144,89.306,96.173,89.306,96.173"/>
		<path fill="none" stroke="#2C6899" stroke-width="10" stroke-miterlimit="10" d="M225.157,248.279
			c0,0-86.192-98.314-109.677-101.315c-12.584,0-18.515,19.001-18.515,19.001"/>
		<path fill="none" stroke="#2C6899" stroke-width="20" stroke-miterlimit="10" d="M105.72,354.721c0,0,64.616,64.994,122.931,3.119
			s-5.686-111.519-5.686-111.519"/>
		<path fill="none" stroke="#2C6899" stroke-width="20" stroke-miterlimit="10" d="M232.65,365.84
			c0,0,176.315,146.125,182.314-36.875c4.001-139.449-212-174.035-117-250c95-75.965,157,61.837,157,61.837"/>
		<circle fill="none" stroke="#2C6899" stroke-width="20" stroke-miterlimit="10" cx="490.129" cy="176.229" r="58.296"/>
	</g>
</g>
</svg>
