<?xml version="1.0" encoding="utf-8"?>
<!-- Generator: Adobe Illustrator 16.0.0, SVG Export Plug-In . SVG Version: 6.00 Build 0)  -->
<!DOCTYPE svg PUBLIC "-//W3C//DTD SVG 1.1//EN" "http://www.w3.org/Graphics/SVG/1.1/DTD/svg11.dtd">
<svg version="1.1" id="Layer_1" xmlns="http://www.w3.org/2000/svg" xmlns:xlink="http://www.w3.org/1999/xlink" x="0px" y="0px"
	 width="566.93px" height="566.93px" viewBox="0 0 566.93 566.93" enable-background="new 0 0 566.93 566.93" xml:space="preserve">
<path display="none" fill="#75B9EB" d="M142.451,332.738l79.988,86.99l223.597-202.405l-180.707-3.298L142.451,332.738z"/>
<path display="none" fill="#885F44" d="M226.485,429.62c-9.729,0-18.838-3.782-25.659-10.642l-57.772-58.109
	c-6.801-6.83-10.521-15.932-10.492-25.621c0.029-9.68,3.807-18.756,10.636-25.547l181.334-180.267
	c13.66-13.603,37.57-13.511,51.163,0.149l57.771,58.114c14.066,14.147,13.999,37.103-0.145,51.169L251.989,419.129
	C245.188,425.896,236.126,429.62,226.485,429.62L226.485,429.62z M350.037,138.728c-4.376,0-8.482,1.681-11.554,4.734
	L157.149,323.729c-3.082,3.066-4.792,7.183-4.801,11.584c-0.02,4.399,1.662,8.521,4.734,11.606l57.772,58.108
	c6.125,6.164,17.003,6.207,23.186,0.072l181.334-180.261c6.405-6.375,6.435-16.781,0.067-23.191l-57.771-58.114
	C358.587,140.433,354.462,138.728,350.037,138.728L350.037,138.728z"/>
<path display="none" fill="#885F44" d="M471.977,247.001c-2.625,0.003-5.143-1.04-6.994-2.898L313.287,92.414
	c-3.864-3.865-3.864-10.125,0-13.989c3.864-3.864,10.125-3.864,13.989,0l151.693,151.69c3.864,3.864,3.864,10.125,0,13.989
	C477.117,245.961,474.601,247.004,471.977,247.001z"/>
<path display="none" fill="#885F44" d="M399.423,174.453c-2.624,0.003-5.142-1.04-6.994-2.898c-3.863-3.864-3.863-10.125,0-13.989
	l85.739-85.734c3.865-3.865,10.125-3.865,13.989,0c3.864,3.864,3.864,10.125,0,13.989l-85.739,85.735
	C404.564,173.414,402.048,174.457,399.423,174.453z"/>
<path display="none" fill="#885F44" d="M518.136,121.695c-2.625,0.003-5.142-1.04-6.995-2.898l-65.943-65.954
	c-3.864-3.865-3.864-10.129,0-13.989c3.863-3.865,10.125-3.865,13.988,0l65.945,65.955c3.864,3.864,3.864,10.129,0,13.989
	C523.277,120.656,520.76,121.698,518.136,121.695z M43.286,530.59c-2.624,0.003-5.142-1.04-6.994-2.897
	c-3.865-3.864-3.865-10.125,0-13.989l105.525-105.521c3.865-3.863,10.125-3.863,13.989,0c3.865,3.865,3.865,10.125,0,13.989
	L50.281,527.692C48.428,529.551,45.911,530.594,43.286,530.59z"/>
<path display="none" fill="#75B9EB" d="M119.943,333.547l109.052,109.052c0.39,0.393,0.39,1.024,0,1.416l-23.316,23.316
	c-0.392,0.39-1.024,0.39-1.417,0L95.211,358.277c-0.39-0.391-0.39-1.023,0-1.416l23.315-23.314
	C118.918,333.157,119.551,333.157,119.943,333.547z"/>
<path display="none" fill="#885F44" d="M204.97,470.669c-7.323,0-14.201-2.84-19.36-7.999l-85.74-85.74
	c-10.675-10.676-10.675-28.045,0-38.721c10.318-10.318,28.402-10.318,38.721,0l85.74,85.74c10.675,10.676,10.675,28.045,0,38.721
	C219.171,467.829,212.293,470.669,204.97,470.669z M119.23,349.996c-2.038,0-3.951,0.781-5.371,2.202
	c-2.957,2.962-2.957,7.782,0,10.743l85.74,85.738c2.84,2.842,7.903,2.842,10.743,0c2.957-2.961,2.957-7.78,0-10.742l-85.74-85.74
	C123.182,350.777,121.269,349.996,119.23,349.996z"/>
<path display="none" fill="#885F44" d="M228.35,335.631l46.169,46.168l-13.989,13.99l-46.169-46.17L228.35,335.631z"/>
<path display="none" fill="#885F44" d="M261.353,302.661l46.161,46.161l-13.988,13.988l-46.162-46.16L261.353,302.661z"/>
<path display="none" fill="#885F44" d="M294.282,269.681l46.166,46.167l-13.989,13.988l-46.165-46.167L294.282,269.681z"/>
<path display="none" fill="#885F44" d="M320.709,243.3l46.161,46.162l-13.988,13.989L306.72,257.29L320.709,243.3z"/>
<g>
	<polyline fill="none" stroke="#4562A6" stroke-width="10" stroke-miterlimit="10" points="313.287,78.424 399.397,164.531 
		478.971,244.103 	"/>
	
		<line fill="none" stroke="#4562A6" stroke-width="10" stroke-miterlimit="10" x1="446.035" y1="40.965" x2="525.131" y2="120.797"/>
	
		<line fill="none" stroke="#4562A6" stroke-width="10" stroke-miterlimit="10" x1="485.583" y1="80.881" x2="399.397" y2="164.531"/>
	<path fill="none" stroke="#4562A6" stroke-width="9.9995" stroke-miterlimit="10" d="M436.909,202.294
		c5.531,5.611,6.799,13.333,2.83,17.246L235.206,421.188c-3.969,3.914-11.671,2.536-17.202-3.072L143.93,342.98
		c-5.532-5.61-6.799-13.332-2.83-17.246l204.533-201.646c3.969-3.913,11.671-2.537,17.203,3.074L436.909,202.294z"/>
	<path fill="none" stroke="#4562A6" stroke-width="9.9995" stroke-miterlimit="10" d="M220.794,431.011
		c4.679,4.694,4.668,12.292-0.025,16.972l-11.826,11.79c-4.693,4.679-12.292,4.667-16.97-0.025l-88.254-88.522
		c-4.679-4.693-4.668-12.291,0.025-16.971l11.826-11.79c4.693-4.679,12.292-4.667,16.97,0.024L220.794,431.011z"/>
	
		<line fill="none" stroke="#4562A6" stroke-width="9.9995" stroke-miterlimit="10" x1="147.645" y1="415.283" x2="55.965" y2="506.965"/>
	<polygon fill="#FD832D" stroke="#FD832D" stroke-miterlimit="10" points="268.329,209.026 143.645,332.721 228.349,419.283 
		433.965,216.026 	"/>
	
		<line fill="none" stroke="#4562A6" stroke-width="9.9995" stroke-miterlimit="10" x1="267.927" y1="388.927" x2="224.296" y2="344.965"/>
	
		<line fill="none" stroke="#4562A6" stroke-width="9.9995" stroke-miterlimit="10" x1="300.527" y1="354.611" x2="256.896" y2="310.65"/>
	
		<line fill="none" stroke="#4562A6" stroke-width="9.9995" stroke-miterlimit="10" x1="332.103" y1="321.74" x2="288.471" y2="277.778"/>
	
		<line fill="none" stroke="#4562A6" stroke-width="9.9995" stroke-miterlimit="10" x1="360.264" y1="295.434" x2="316.632" y2="251.472"/>
</g>
</svg>
