<?xml version="1.0" encoding="utf-8"?>
<!-- Generator: Adobe Illustrator 16.0.0, SVG Export Plug-In . SVG Version: 6.00 Build 0)  -->
<!DOCTYPE svg PUBLIC "-//W3C//DTD SVG 1.1//EN" "http://www.w3.org/Graphics/SVG/1.1/DTD/svg11.dtd">
<svg version="1.1" id="Layer_1" xmlns="http://www.w3.org/2000/svg" xmlns:xlink="http://www.w3.org/1999/xlink" x="0px" y="0px"
	 width="566.93px" height="566.93px" viewBox="0 0 566.93 566.93" enable-background="new 0 0 566.93 566.93" xml:space="preserve">
<g>
	<path fill="#276999" d="M374.396,421.652c3.314,0,6-2.686,6-6v-6.016c0-3.312-2.686-6-6-6c-3.313,0-6,2.688-6,6v6.016
		C368.396,418.967,371.083,421.652,374.396,421.652z"/>
	<path fill="none" stroke="#276999" stroke-width="10" stroke-miterlimit="10" d="M407.632,181.538c0,0,29.904,25.009-9.005,44.009
		c0,91-86.246,86-86.246,86"/>
	<path fill="none" stroke="#276999" stroke-width="10" stroke-miterlimit="10" d="M405.627,168.546c0,0,5.262,29.778-12,30
		c-15.23,0.195-19.442-29.48-19.442-29.48"/>
	<polyline fill="none" stroke="#276999" stroke-width="10" stroke-miterlimit="10" points="316.627,132.579 423.508,132.579 
		422.508,169.066 316.627,168.546 308.508,168.546 202.627,169.066 201.627,132.579 308.508,132.579 319.293,132.579 	"/>
	<path fill="none" stroke="#276999" stroke-width="10" stroke-miterlimit="10" d="M406.382,132.579
		c0-77.679-67.144-88.2-71.971-95.366s6.417-3.277,6.649-15.722c4.898-3.444-30.434-2-30.434-2"/>
	<path fill="none" stroke="#276999" stroke-width="10" stroke-miterlimit="10" d="M353.96,48.899c0,0-0.491,67.312-41.579,67.312
		l-5.767-0.247"/>
	<path fill="none" stroke="#276999" stroke-width="10" stroke-miterlimit="10" d="M217.503,181.538c0,0-29.904,25.009,9.005,44.009
		c0,91,86.246,86,86.246,86"/>
	<path fill="none" stroke="#276999" stroke-width="10" stroke-miterlimit="10" d="M219.508,168.546c0,0-5.262,29.778,12,30
		c15.23,0.195,19.442-29.48,19.442-29.48"/>
	<path fill="none" stroke="#276999" stroke-width="10" stroke-miterlimit="10" d="M218.753,132.579
		c0-77.679,67.144-88.2,71.971-95.366s-6.417-3.277-6.649-15.722c-4.898-3.444,30.434-2,30.434-2"/>
	<path fill="none" stroke="#276999" stroke-width="10" stroke-miterlimit="10" d="M269.175,48.899c0,0,0.491,67.312,41.579,67.312"
		/>
	<path fill="none" stroke="#276999" stroke-width="10" stroke-miterlimit="10" d="M348.3,305.652v21.166v7.729
		c0,0-17.006,14.666-35.792,13.238c-18.548,2.096-43.333-13.238-43.333-13.238v-28.895"/>
	<path fill="none" stroke="#276999" stroke-width="10" stroke-miterlimit="10" d="M348.3,334.547c0,0,75.66,16.666,80.327,43.334
		c-0.034,33.332-0.091,89.787-0.091,89.787H250.95"/>
	<line fill="none" stroke="#276999" stroke-width="10" stroke-miterlimit="10" x1="370.56" y1="340.617" x2="370.56" y2="389.881"/>
	<polyline fill="none" stroke="#276999" stroke-width="10" stroke-miterlimit="10" points="391.147,347.982 390.283,389.881 
		275.294,389.881 	"/>
	
		<line fill="none" stroke="#276999" stroke-width="10" stroke-miterlimit="10" x1="390.283" y1="389.881" x2="390.147" y2="467.668"/>
	<path fill="none" stroke="#216A9A" stroke-width="10" stroke-miterlimit="10" d="M275.301,340.889
		c-17.342-3.674-89.613-51.324-89.613-51.324s-62.815,38.107-86.782,49.363c-14.946,91.619,8.387,147.619,83.626,166.883
		C284.626,488.547,276.154,392.355,275.301,340.889z"/>
	<path fill="none" stroke="#216A9A" stroke-width="10" stroke-miterlimit="10" d="M152.667,403.637c0,0,12.98,13.915,22.626,18.016
		c9.928-6.209,51.612-47.957,51.612-47.957"/>
</g>
</svg>
