<?xml version="1.0" encoding="utf-8"?>
<!-- Generator: Adobe Illustrator 16.0.0, SVG Export Plug-In . SVG Version: 6.00 Build 0)  -->
<!DOCTYPE svg PUBLIC "-//W3C//DTD SVG 1.1//EN" "http://www.w3.org/Graphics/SVG/1.1/DTD/svg11.dtd">
<svg version="1.1" id="Layer_1" xmlns="http://www.w3.org/2000/svg" xmlns:xlink="http://www.w3.org/1999/xlink" x="0px" y="0px"
	 width="488px" height="488px" viewBox="0 0 488 488" enable-background="new 0 0 488 488" xml:space="preserve">
<path display="none" d="M246.945,112.018V91.21h1.084c4.42,0,7.91-4.06,7.91-8.476V8.177c0.016-2.104-0.812-4.126-2.295-5.614
	c-1.488-1.488-3.511-2.315-5.615-2.3H44.692c-2.073-0.004-4.06,0.835-5.5,2.331c-1.437,1.492-2.206,3.51-2.124,5.579V82.73
	c0,4.416,3.209,8.476,7.624,8.476h1.371v20.843c0,0.051-0.281,0.098-0.383,0.152c-0.39,0.195-0.816,0.394-1.202,0.593
	c-0.492,0.254-1.007,0.508-1.5,0.769c-0.39,0.211-0.789,0.434-1.179,0.652c-0.473,0.266-0.949,0.527-1.413,0.805
	c-0.395,0.23-0.781,0.468-1.167,0.703c-0.457,0.281-0.91,0.558-1.358,0.843c-0.383,0.25-0.77,0.5-1.148,0.753
	c-0.438,0.292-0.871,0.585-1.3,0.882c-0.378,0.27-0.757,0.535-1.132,0.8c-0.422,0.304-0.843,0.613-1.257,0.925
	c-0.371,0.277-0.742,0.558-1.108,0.843c-0.406,0.316-0.812,0.64-1.214,0.964c-0.363,0.292-0.722,0.585-1.078,0.882
	c-0.398,0.332-0.789,0.672-1.179,1.011c-0.348,0.305-0.699,0.609-1.042,0.917c-0.386,0.348-0.761,0.703-1.144,1.054
	c-0.335,0.316-0.675,0.628-1.007,0.953c-0.371,0.363-0.738,0.73-1.105,1.097c-0.324,0.328-0.648,0.648-0.968,0.98
	c-0.363,0.379-0.718,0.765-1.078,1.152c-0.304,0.332-0.617,0.664-0.917,1c-0.363,0.397-0.711,0.812-1.062,1.222
	c-0.289,0.332-0.578,0.66-0.859,1c-0.367,0.441-0.722,0.89-1.078,1.335c-0.254,0.32-0.515,0.633-0.761,0.953
	c-0.441,0.566-0.867,1.144-1.292,1.722c-0.242,0.332-0.484,0.66-0.722,0.992c-0.473,0.667-0.945,1.339-1.398,2.019
	c-0.219,0.324-0.421,0.656-0.636,0.983c-0.32,0.496-0.644,0.988-0.957,1.492c-0.227,0.367-0.441,0.738-0.664,1.108
	c-0.281,0.473-0.566,0.941-0.839,1.417c-0.223,0.39-0.434,0.785-0.652,1.179c-0.258,0.469-0.516,0.933-0.765,1.397
	c-0.211,0.406-0.414,0.816-0.621,1.226c-0.238,0.468-0.476,0.937-0.703,1.409c-0.199,0.418-0.39,0.835-0.585,1.253
	c-0.219,0.476-0.438,0.953-0.648,1.433c-0.188,0.422-0.367,0.847-0.547,1.276c-0.199,0.479-0.398,0.964-0.597,1.453
	c-0.172,0.433-0.34,0.867-0.5,1.3c-0.188,0.492-0.371,0.98-0.547,1.476c-0.156,0.438-0.308,0.874-0.457,1.315
	c-0.172,0.5-0.336,1-0.496,1.499c-0.14,0.441-0.277,0.886-0.41,1.331c-0.152,0.508-0.301,1.015-0.441,1.527
	c-0.125,0.445-0.246,0.89-0.363,1.339c-0.137,0.515-0.262,1.039-0.391,1.558c-0.105,0.445-0.214,0.89-0.312,1.339
	c-0.117,0.531-0.227,1.062-0.336,1.601c-0.09,0.441-0.18,0.886-0.266,1.331c-0.097,0.546-0.191,1.093-0.281,1.644
	c-0.074,0.438-0.148,0.875-0.215,1.315c-0.082,0.562-0.152,1.132-0.227,1.698c-0.055,0.43-0.113,0.855-0.16,1.285
	c-0.066,0.597-0.117,1.199-0.172,1.796c-0.035,0.402-0.078,0.8-0.109,1.206c-0.051,0.671-0.082,1.347-0.113,2.019
	c-0.02,0.335,0.062,0.675,0.051,1.011c-0.039,1.011,0.047,2.03,0.047,3.045v174.779c-0.012,24.791,20.055,44.908,44.845,44.963
	h202.858c24.848-0.039,45.004-20.137,45.113-44.985V186.295c0.043-16.424-4.768-32.493-13.828-46.188
	C271.127,127.997,260.012,118.288,246.945,112.018z M53.059,16.254H239.95v58.965H53.059V16.254z M276.928,361.018
	c-0.094,16.037-13.109,28.998-29.146,29.019H44.97c-15.987-0.027-28.92-13.013-28.889-28.995v-174.75
	c-0.016-14.078,4.384-27.804,12.583-39.25c0.944-1.315,1.885-2.596,2.924-3.837c0.519-0.621,1.023-1.472,1.562-2.073
	c6.605-7.289,14.703-13.066,23.744-16.939h0.07c3.037-0.945,5.103-3.76,5.091-6.941V91.21h168.901v26.043
	c-0.012,3.279,1.983,6.227,5.032,7.437c24.5,9.674,40.942,34.433,40.942,61.604v174.724H276.928z"/>
<path display="none" d="M227.956,224.132h-48.971V175.16c0-4.415-3.58-7.995-7.995-7.995h-48.971c-4.416,0-7.996,3.58-7.996,7.995
	v48.972H66.051c-4.416,0-7.996,3.58-7.996,7.995V278.1c0,4.416,3.58,7.996,7.996,7.996h47.972v48.971
	c0,4.416,3.58,7.996,7.996,7.996h48.971c4.415,0,7.995-3.58,7.995-7.996v-48.971h48.971c4.416,0,7.996-3.58,7.996-7.996v-45.973
	C235.952,227.712,232.372,224.132,227.956,224.132z M219.961,270.105H170.99c-4.416,0-7.996,3.58-7.996,7.994v48.973h-32.98V278.1
	c0-4.414-3.58-7.994-7.995-7.994H74.046v-29.983h47.972c4.415,0,7.995-3.58,7.995-7.995v-48.971h32.98v48.971
	c0,4.416,3.58,7.995,7.996,7.995h48.971L219.961,270.105L219.961,270.105z"/>
<path display="none" d="M460.125,276.242l-93.887-34.421c-21.901-8.038-46.185,3.082-54.417,24.908
	c-8.229,21.826,2.67,46.207,24.423,54.633c-22.394,2.529-38.914,22.107-37.634,44.609c1.275,22.498,19.909,40.082,42.442,40.055h100
	c15.02,0.023,28.93-7.89,36.584-20.812c7.656-12.918,7.91-28.924,0.677-42.084c8.757-10.635,11.812-24.853,8.197-38.146
	C482.896,291.691,473.059,280.979,460.125,276.242z M470.393,325.283c-0.68,1.848-1.564,3.611-2.636,5.264
	c-7.55-6.134-16.979-9.479-26.703-9.472H398.95l16.231-44.282l39.438,14.46C468.362,296.309,475.417,311.534,470.393,325.283z
	 M327.542,292.889c-4.513-9.731-2.717-21.222,4.553-29.115c7.266-7.891,18.567-10.631,28.641-6.938l39.438,14.46l-14.016,38.228
	c1.507-4.143-0.62-8.725-4.759-10.239l-31.936-11.708c-2.686-1.008-5.707-0.495-7.913,1.339c-2.206,1.836-3.26,4.713-2.764,7.539
	c0.499,2.825,2.475,5.165,5.177,6.137l31.93,11.704c1.987,0.734,4.187,0.645,6.11-0.245c1.925-0.895,3.412-2.511,4.142-4.502
	l-4.228,11.528h-0.035l-39.407-14.444C335.861,304.229,330.486,299.283,327.542,292.889z M314.534,363.551
	c0.02-14.637,11.888-26.488,26.52-26.484h41.812v40.719c0.031-2.073-0.784-4.067-2.252-5.528c-1.474-1.459-3.476-2.256-5.544-2.209
	h-34.017c-4.415,0-7.995,3.58-7.995,7.995s3.58,7.995,7.995,7.995h34.017c4.411-0.125,7.894-3.791,7.796-8.206v12.204h-41.812
	C326.422,390.035,314.554,378.184,314.534,363.551z M441.054,390.035h-42.196v-52.969h42.196c14.625,0,26.484,11.854,26.484,26.483
	C467.538,378.175,455.679,390.035,441.054,390.035z"/>
<path fill="#F79933" d="M420.743,278.791l-33.479,49.792c0,0,30.601,26.939,63.159,33.815c19.182-3.18,28.794-21.583,24.533-36.488
	C470.695,311.007,420.743,278.791,420.743,278.791z"/>
<g>
	<polygon fill="none" stroke="#4564A7" stroke-width="9.8362" stroke-miterlimit="10" points="249.615,13 51.383,13 51.383,89.722 
		249.562,90.42 	"/>
	<g>
		<path fill="none" stroke="#4564A7" stroke-width="9.8362" stroke-miterlimit="10" d="M332.452,253.621
			c20.347-28.772,51.164-5.232,90.196,22.368c39.031,27.6,72.873,46.864,51.153,77.582"/>
		<path fill="none" stroke="#4564A7" stroke-width="9.8362" stroke-miterlimit="10" d="M473.802,353.571
			c-21.722,30.718-51.167,5.232-90.197-22.367c-39.03-27.601-71.497-48.812-51.152-77.583"/>
		
			<line fill="none" stroke="#4564A7" stroke-width="9.8362" stroke-miterlimit="10" x1="419.112" y1="274.562" x2="383.378" y2="326.414"/>
		<path fill="#4564A7" d="M382.238,311.098c-3.761,5.318-8.858,0.905-15.615-3.873c-6.758-4.779-12.38-8.451-8.856-13.433
			c3.521-4.98,8.857-0.905,15.614,3.874C380.14,302.445,385.998,305.778,382.238,311.098z"/>
	</g>
	<path fill="none" stroke="#4564A7" stroke-width="9.8362" stroke-miterlimit="10" d="M233.699,92.42
		c0.689-0.966-4.642,32.694,14.886,36.833c44.875,6.246,58.539,278.178,24.821,271.482c-29.242,3.745-121.198,2.294-121.198,2.294"
		/>
	<path fill="none" stroke="#4564A7" stroke-width="9.8362" stroke-miterlimit="10" d="M72.421,91.42
		c-0.69-0.966,4.642,33.694-14.887,37.833C10.211,130.5-1.005,407.432,32.714,400.736c29.242,3.745,121.198,2.294,121.198,2.294"/>
	<path fill="none" stroke="#4564A7" stroke-width="9.8362" stroke-miterlimit="10" d="M481,365.595
		c0,37.622-38.754,33.812-86.559,33.812c-47.806,0-86.559,1.429-86.559-33.812c0-35.239,38.753-33.811,86.559-33.811
		C442.246,331.784,481,327.974,481,365.595z"/>
	
		<line fill="none" stroke="#4564A7" stroke-width="9.8362" stroke-miterlimit="10" x1="390.731" y1="332.659" x2="391.49" y2="395.628"/>
	<path fill="#4564A7" d="M381.717,383.78c0,6.515-6.709,5.854-14.986,5.854c-8.276,0-14.986,0.247-14.986-5.854
		s6.71-5.854,14.986-5.854C375.008,377.927,381.717,377.267,381.717,383.78z"/>
	<path fill="#F79933" d="M395.81,335.627v60.001c0,0,40.426,5.281,71.281-7.18c14.145-13.342,11.853-33.978,0-43.969
		C455.238,334.489,395.81,335.627,395.81,335.627z"/>
</g>
<line fill="none" stroke="#F79933" stroke-width="38.1397" stroke-miterlimit="10" x1="151.208" y1="185.5" x2="150.912" y2="323.595"/>
<line fill="none" stroke="#F79933" stroke-width="40" stroke-miterlimit="10" x1="212.5" y1="253.621" x2="90.5" y2="253.621"/>
</svg>
