<?xml version="1.0" encoding="utf-8"?>
<!-- Generator: Adobe Illustrator 16.0.0, SVG Export Plug-In . SVG Version: 6.00 Build 0)  -->
<!DOCTYPE svg PUBLIC "-//W3C//DTD SVG 1.1//EN" "http://www.w3.org/Graphics/SVG/1.1/DTD/svg11.dtd">
<svg version="1.1" id="Layer_1" xmlns="http://www.w3.org/2000/svg" xmlns:xlink="http://www.w3.org/1999/xlink" x="0px" y="0px"
	 width="566.93px" height="566.93px" viewBox="0 0 566.93 566.93" enable-background="new 0 0 566.93 566.93" xml:space="preserve">
<g>
	<path fill="none" stroke="#306799" stroke-width="10" stroke-miterlimit="10" d="M550.909,138.352c0,0,6.891,83.879,0,93.627
		c-3.915,5.537-38.866,12.072-62.891,3c-10.18-3-3-108.805-3-108.805v-17.005"/>
	<path fill="none" stroke="#306799" stroke-width="10" stroke-miterlimit="10" d="M481.019,126.998
		c-69-6.824-53.797-70.672-109.898-82.824s-158.102-5-158.102-5s-23-1-23,28s23,24,23,24l65.5,0.412"/>
	<path fill="none" stroke="#306799" stroke-width="10" stroke-miterlimit="10" d="M482.561,212.019c0,0-28.911,7.845-75.727,0
		s-88.774-58.458-100.815-76.021c-12.041-17.563-20.754-35.866,0.623-47.845s39.733,8.983,39.733,8.983l46.915,45.403"/>
</g>
<g>
	<path fill="none" stroke="#276999" stroke-width="10" stroke-miterlimit="10" d="M13.95,417.39c0,0-6.891-83.879,0-93.627
		c3.915-5.537,38.866-12.072,62.891-3c10.18,3,3,108.805,3,108.805v17.005"/>
	<path fill="none" stroke="#276999" stroke-width="10" stroke-miterlimit="10" d="M83.841,428.744
		c69,6.823,53.797,70.672,109.898,82.823s158.102,5,158.102,5s23,1,23-28s-23-24-23-24l-65.5-0.412"/>
	<path fill="none" stroke="#276999" stroke-width="10" stroke-miterlimit="10" d="M82.299,343.723c0,0,28.911-7.845,75.727,0
		s88.774,58.458,100.815,76.021c12.041,17.562,20.754,35.865-0.623,47.844c-21.377,11.979-39.733-8.982-39.733-8.982l-46.915-45.403
		"/>
</g>
<g>
	<g>
		<path fill="#306799" d="M386.161,418.822c-2.518-5.571-9.062-8.058-14.629-5.54c-5.607,2.441-8.172,8.965-5.73,14.57
			c1.813,4.166,5.884,6.653,10.156,6.653c1.476,0,2.975-0.297,4.414-0.923c0.047-0.021,0.193-0.086,0.238-0.105
			C386.184,430.961,388.678,424.396,386.161,418.822z"/>
	</g>
</g>
<g>
	<g>
		<path fill="#306799" d="M413.683,400.183c-3.619-4.916-10.576-5.939-15.498-2.336c-4.934,3.611-6.005,10.539-2.394,15.473
			c2.17,2.962,5.531,4.532,8.941,4.532c2.271,0,4.562-0.695,6.532-2.138c0.018-0.013,0.122-0.09,0.139-0.103
			C416.307,411.979,417.302,405.097,413.683,400.183z"/>
	</g>
</g>
<g>
	<g>
		<path fill="#306799" d="M355.208,431.252c-1.261-5.963-7.115-9.781-13.083-8.548c-5.962,1.185-9.859,6.959-8.717,12.938
			c1.015,5.305,5.655,8.995,10.862,8.995c0.688,0,1.39-0.065,2.091-0.199c0.071-0.015,0.253-0.051,0.326-0.066
			C352.667,443.103,356.474,437.232,355.208,431.252z"/>
	</g>
</g>
<g>
	<g>
		<path fill="#306799" d="M436.812,376.101c-4.54-4.094-11.539-3.734-15.636,0.807c-0.055,0.061-0.182,0.205-0.234,0.266
			c-3.995,4.63-3.479,11.621,1.15,15.615c2.092,1.805,4.665,2.688,7.226,2.688c3.075,0,6.133-1.273,8.318-3.759
			C441.713,387.177,441.346,380.19,436.812,376.101z M430.629,385.437l-1.231-1.113l1.333,1.202L430.629,385.437z"/>
	</g>
</g>
<g>
	<g>
		<path fill="#306799" d="M464.992,316.1c-5.851-1.774-12.041,1.563-13.815,7.415c-1.799,5.845,1.481,12.04,7.325,13.838
			c1.084,0.335,2.181,0.493,3.259,0.493c4.732,0,9.114-3.058,10.578-7.818l0.047-0.151
			C474.159,324.023,470.843,317.874,464.992,316.1z"/>
	</g>
</g>
<g>
	<g>
		<path fill="#306799" d="M479.173,258.958c-0.024-0.141-0.051-0.281-0.081-0.422c-1.25-5.984-7.114-9.812-13.096-8.564
			c-5.96,1.243-9.793,7.071-8.592,13.031c1.015,5.283,5.645,8.98,10.857,8.98c0.647,0,1.306-0.057,1.965-0.175
			C476.245,270.73,480.25,264.977,479.173,258.958z"/>
	</g>
</g>
<g>
	<g>
		<path fill="#306799" d="M469.02,282.979c-6.071-0.535-11.464,3.966-12.001,10.056c-0.01,0.107-0.025,0.325-0.032,0.433
			c-0.358,6.105,4.298,11.344,10.402,11.703c0.221,0.014,0.44,0.02,0.659,0.02c5.765,0,10.609-4.457,11.033-10.263
			C479.586,288.859,475.093,283.516,469.02,282.979z"/>
	</g>
</g>
<g>
	<g>
		<path fill="#306799" d="M454.154,347.604c-5.315-3.014-12.076-1.146-15.091,4.174l-0.153,0.277
			c-2.916,5.375-0.948,12.144,4.426,15.059c1.69,0.917,3.51,1.353,5.303,1.353c3.907,0,7.683-2.073,9.681-5.759l-9.624-5.472
			l9.632,5.459C461.343,357.375,459.475,350.619,454.154,347.604z"/>
	</g>
</g>
<g>
	<g>
		<path fill="#306799" d="M203.294,147.08c-0.017-0.013-0.121-0.09-0.139-0.103c-1.971-1.442-4.262-2.138-6.532-2.138
			c-3.41,0-6.771,1.57-8.941,4.532c-3.611,4.934-2.54,11.861,2.394,15.473c4.922,3.604,11.879,2.58,15.498-2.336
			C209.193,157.595,208.198,150.712,203.294,147.08z"/>
	</g>
</g>
<g>
	<g>
		<path fill="#306799" d="M218.288,143.869c2.518,5.571,9.062,8.058,14.629,5.54c5.607-2.441,8.172-8.965,5.73-14.57
			c-1.813-4.166-5.884-6.653-10.156-6.653c-1.476,0-2.975,0.297-4.414,0.923c-0.047,0.021-0.193,0.086-0.238,0.105
			C218.265,131.73,215.771,138.296,218.288,143.869z"/>
	</g>
</g>
<g>
	<g>
		<path fill="#306799" d="M249.241,131.439c1.261,5.963,7.115,9.781,13.083,8.548c5.962-1.185,9.859-6.959,8.717-12.938
			c-1.015-5.305-5.655-8.995-10.862-8.995c-0.688,0-1.39,0.065-2.091,0.199c-0.071,0.015-0.253,0.051-0.326,0.066
			C251.782,119.589,247.975,125.459,249.241,131.439z"/>
	</g>
</g>
<g>
	<g>
		<path fill="#306799" d="M167.637,186.591c4.54,4.094,11.539,3.734,15.636-0.807c0.055-0.061,0.182-0.205,0.234-0.266
			c3.995-4.63,3.479-11.621-1.15-15.615c-2.092-1.805-4.665-2.688-7.226-2.688c-3.075,0-6.133,1.273-8.318,3.759
			C162.736,175.515,163.103,182.501,167.637,186.591z M173.82,177.255l1.231,1.113l-1.333-1.202L173.82,177.255z"/>
	</g>
</g>
<g>
	<g>
		<path fill="#306799" d="M139.457,246.592c5.851,1.774,12.041-1.563,13.815-7.415c1.799-5.845-1.481-12.04-7.325-13.838
			c-1.084-0.335-2.181-0.493-3.259-0.493c-4.732,0-9.114,3.058-10.578,7.818l-0.047,0.151
			C130.29,238.668,133.606,244.817,139.457,246.592z"/>
	</g>
</g>
<g>
	<g>
		<path fill="#306799" d="M125.276,303.734c0.024,0.141,0.051,0.281,0.081,0.422c1.25,5.983,7.114,9.811,13.096,8.563
			c5.96-1.243,9.793-7.071,8.592-13.03c-1.015-5.283-5.645-8.98-10.857-8.98c-0.647,0-1.306,0.057-1.965,0.175
			C128.204,291.961,124.199,297.715,125.276,303.734z"/>
	</g>
</g>
<g>
	<g>
		<path fill="#306799" d="M135.429,279.712c6.071,0.535,11.464-3.966,12.001-10.056c0.01-0.107,0.025-0.325,0.032-0.433
			c0.358-6.105-4.298-11.344-10.402-11.703c-0.221-0.014-0.44-0.02-0.659-0.02c-5.765,0-10.609,4.457-11.033,10.263
			C124.863,273.832,129.356,279.176,135.429,279.712z"/>
	</g>
</g>
<path fill="#F29933" d="M378.504,280.434c0,31.441-33.743,56.929-75.365,56.929c-41.624,0-75.366-25.488-75.366-56.929
	c0-31.44,21.225-44.477,85.366-43.928C354.759,236.863,378.504,248.994,378.504,280.434z"/>
<g>
	<g>
		<path fill="#306799" d="M150.294,215.087c5.315,3.014,12.076,1.146,15.091-4.174l0.153-0.277
			c2.916-5.375,0.948-12.144-4.426-15.059c-1.69-0.917-3.51-1.353-5.303-1.353c-3.907,0-7.683,2.073-9.681,5.759l9.624,5.472
			l-9.632-5.459C143.106,205.316,144.974,212.072,150.294,215.087z"/>
	</g>
</g>
<g>
	<g>
		<path fill="#306799" d="M341.899,218.993c-14.411,0-27.765,5.943-37.278,15.972c-9.517-10.029-22.868-15.972-37.279-15.972
			c-28.35,0-51.414,23.063-51.414,51.414c0,15.297,6.747,29.693,18.508,39.5c0.071,0.061,0.144,0.119,0.217,0.178l63.094,49.951
			c2.013,1.594,4.441,2.391,6.871,2.391c2.441,0,4.881-0.803,6.898-2.412l65.768-52.385c0.322-0.256,0.629-0.531,0.92-0.82
			c9.743-9.717,15.107-22.645,15.107-36.402C393.312,242.056,370.249,218.993,341.899,218.993z M362.969,290.727l-58.368,46.492
			l-56.084-44.4c-6.639-5.586-10.445-13.746-10.445-22.41c-0.001-16.141,13.13-29.272,29.27-29.272
			c11.883,0,22.5,7.097,27.051,18.079c1.715,4.136,5.751,6.833,10.229,6.833c4.477,0,8.512-2.696,10.228-6.833
			c4.551-10.982,15.169-18.079,27.051-18.079c16.14,0,29.271,13.131,29.271,29.271C371.171,278.05,368.262,285.242,362.969,290.727z
			"/>
	</g>
</g>
</svg>
