<?xml version="1.0" encoding="utf-8"?>
<!-- Generator: Adobe Illustrator 16.0.0, SVG Export Plug-In . SVG Version: 6.00 Build 0)  -->
<!DOCTYPE svg PUBLIC "-//W3C//DTD SVG 1.1//EN" "http://www.w3.org/Graphics/SVG/1.1/DTD/svg11.dtd">
<svg version="1.1" id="Layer_1" xmlns="http://www.w3.org/2000/svg" xmlns:xlink="http://www.w3.org/1999/xlink" x="0px" y="0px"
	 width="488px" height="488px" viewBox="0 0 488 488" enable-background="new 0 0 488 488" xml:space="preserve">
<path display="none" d="M246.945,112.018V91.21h1.085c4.419,0,7.909-4.06,7.909-8.476V8.177c0.016-2.104-0.812-4.126-2.295-5.614
	c-1.488-1.488-3.51-2.315-5.614-2.3H44.692c-2.073-0.004-4.06,0.835-5.5,2.331c-1.437,1.492-2.206,3.51-2.124,5.579V82.73
	c0,4.416,3.209,8.476,7.624,8.476h1.371v20.843c0,0.051-0.281,0.098-0.383,0.152c-0.39,0.195-0.816,0.394-1.202,0.593
	c-0.492,0.254-1.007,0.508-1.5,0.769c-0.39,0.211-0.789,0.434-1.179,0.652c-0.473,0.266-0.949,0.527-1.413,0.805
	c-0.395,0.23-0.781,0.468-1.167,0.703c-0.457,0.281-0.91,0.558-1.358,0.843c-0.383,0.25-0.77,0.5-1.148,0.753
	c-0.438,0.292-0.871,0.585-1.3,0.882c-0.378,0.27-0.757,0.535-1.132,0.8c-0.422,0.304-0.843,0.613-1.257,0.925
	c-0.371,0.277-0.742,0.558-1.108,0.843c-0.406,0.316-0.812,0.64-1.214,0.964c-0.363,0.292-0.722,0.585-1.078,0.882
	c-0.398,0.332-0.789,0.672-1.179,1.011c-0.348,0.305-0.699,0.609-1.042,0.917c-0.386,0.348-0.761,0.703-1.144,1.054
	c-0.335,0.316-0.675,0.628-1.007,0.953c-0.371,0.363-0.738,0.73-1.105,1.097c-0.324,0.328-0.648,0.648-0.968,0.98
	c-0.363,0.379-0.718,0.765-1.078,1.152c-0.304,0.332-0.617,0.664-0.917,1c-0.363,0.398-0.711,0.812-1.062,1.222
	c-0.289,0.332-0.578,0.66-0.859,1c-0.367,0.441-0.722,0.89-1.078,1.335c-0.254,0.32-0.515,0.633-0.761,0.953
	c-0.441,0.566-0.867,1.144-1.292,1.722c-0.242,0.332-0.484,0.66-0.722,0.992c-0.473,0.667-0.945,1.339-1.398,2.019
	c-0.219,0.324-0.421,0.656-0.636,0.983c-0.32,0.496-0.644,0.988-0.957,1.492c-0.227,0.367-0.441,0.738-0.664,1.108
	c-0.281,0.473-0.566,0.941-0.839,1.417c-0.223,0.39-0.434,0.785-0.652,1.179c-0.258,0.469-0.516,0.933-0.765,1.397
	c-0.211,0.406-0.414,0.816-0.621,1.226c-0.238,0.468-0.476,0.937-0.703,1.409c-0.199,0.418-0.39,0.835-0.585,1.253
	c-0.219,0.476-0.438,0.953-0.648,1.433c-0.188,0.422-0.367,0.847-0.547,1.276c-0.199,0.48-0.398,0.964-0.597,1.453
	c-0.172,0.433-0.34,0.867-0.5,1.3c-0.188,0.492-0.371,0.98-0.547,1.476c-0.156,0.437-0.308,0.874-0.457,1.315
	c-0.172,0.5-0.336,1-0.496,1.499c-0.14,0.441-0.277,0.886-0.41,1.331c-0.152,0.508-0.301,1.015-0.441,1.527
	c-0.125,0.445-0.246,0.89-0.363,1.339c-0.137,0.515-0.262,1.039-0.391,1.558c-0.105,0.445-0.214,0.89-0.312,1.339
	c-0.117,0.531-0.227,1.062-0.336,1.601c-0.09,0.441-0.18,0.886-0.266,1.331c-0.097,0.546-0.191,1.093-0.281,1.644
	c-0.074,0.438-0.148,0.875-0.215,1.315c-0.082,0.562-0.152,1.132-0.227,1.698c-0.055,0.43-0.113,0.855-0.16,1.285
	c-0.066,0.597-0.117,1.199-0.172,1.796c-0.035,0.402-0.078,0.8-0.109,1.206c-0.051,0.671-0.082,1.347-0.113,2.019
	c-0.02,0.335,0.062,0.675,0.051,1.011c-0.039,1.011,0.047,2.03,0.047,3.045v174.78c-0.012,24.79,20.055,44.907,44.845,44.962
	h202.858c24.848-0.039,45.004-20.137,45.113-44.985V186.295c0.043-16.424-4.767-32.493-13.828-46.188
	C271.127,127.997,260.012,118.288,246.945,112.018z M53.059,16.254h186.891v58.965H53.059V16.254z M276.928,361.017
	c-0.094,16.038-13.109,28.999-29.146,29.019H44.97c-15.987-0.027-28.92-13.012-28.889-28.995V186.291
	c-0.016-14.078,4.384-27.804,12.583-39.25c0.944-1.315,1.885-2.596,2.924-3.837c0.519-0.621,1.023-1.472,1.562-2.073
	c6.605-7.289,14.703-13.066,23.744-16.939h0.07c3.037-0.945,5.103-3.76,5.091-6.941V91.21h168.901v26.043
	c-0.012,3.279,1.983,6.227,5.032,7.437c24.501,9.674,40.941,34.433,40.941,61.604V361.017z"/>
<path display="none" d="M227.956,224.132h-48.971v-48.972c0-4.415-3.58-7.995-7.995-7.995h-48.971c-4.416,0-7.996,3.58-7.996,7.995
	v48.972H66.051c-4.416,0-7.996,3.58-7.996,7.995v45.973c0,4.415,3.58,7.995,7.996,7.995h47.972v48.971
	c0,4.416,3.58,7.996,7.996,7.996h48.971c4.415,0,7.995-3.58,7.995-7.996v-48.971h48.971c4.416,0,7.996-3.58,7.996-7.995v-45.973
	C235.952,227.712,232.372,224.132,227.956,224.132z M219.961,270.105H170.99c-4.416,0-7.996,3.58-7.996,7.995v48.972h-32.98v-48.972
	c0-4.415-3.58-7.995-7.995-7.995H74.046v-29.983h47.972c4.415,0,7.995-3.58,7.995-7.995v-48.971h32.98v48.971
	c0,4.416,3.58,7.995,7.996,7.995h48.971V270.105z"/>
<path display="none" d="M460.125,276.242l-93.887-34.421c-21.901-8.038-46.184,3.081-54.417,24.908
	c-8.229,21.826,2.67,46.207,24.423,54.632c-22.393,2.53-38.914,22.108-37.634,44.61c1.276,22.498,19.91,40.082,42.443,40.055h100
	c15.019,0.023,28.929-7.89,36.584-20.812c7.656-12.918,7.91-28.924,0.676-42.084c8.757-10.635,11.813-24.853,8.198-38.146
	S473.059,280.978,460.125,276.242z M470.393,325.283c-0.68,1.848-1.565,3.611-2.636,5.264c-7.55-6.134-16.979-9.479-26.703-9.472
	H398.95l16.232-44.282l39.438,14.46C468.362,296.309,475.417,311.534,470.393,325.283z M327.542,292.889
	c-4.513-9.732-2.717-21.222,4.553-29.115c7.265-7.891,18.567-10.631,28.64-6.938l39.438,14.46l-14.016,38.228
	c1.507-4.143-0.62-8.725-4.759-10.24l-31.935-11.708c-2.686-1.007-5.707-0.495-7.913,1.339c-2.206,1.836-3.26,4.713-2.764,7.539
	c0.499,2.826,2.475,5.165,5.177,6.137l31.93,11.704c1.987,0.734,4.186,0.645,6.11-0.245c1.925-0.895,3.412-2.511,4.142-4.502
	l-4.228,11.528h-0.035l-39.407-14.444C335.861,304.229,330.486,299.283,327.542,292.889z M314.534,363.551
	c0.02-14.637,11.888-26.488,26.52-26.484h41.812v40.718c0.031-2.073-0.784-4.067-2.252-5.528c-1.473-1.459-3.475-2.256-5.544-2.209
	h-34.016c-4.415,0-7.995,3.58-7.995,7.995s3.58,7.995,7.995,7.995h34.016c4.411-0.125,7.894-3.791,7.796-8.206v12.204h-41.812
	C326.422,390.035,314.554,378.183,314.534,363.551z M441.054,390.035h-42.197v-52.969h42.197c14.625,0,26.484,11.855,26.484,26.484
	C467.538,378.175,455.679,390.035,441.054,390.035z"/>
<g>
	<polygon fill="none" stroke="#4564A7" stroke-width="10" stroke-miterlimit="10" points="244,6.5 44.5,6.5 44.5,84.5 
		243.945,85.21 	"/>
	<g>
		<path fill="none" stroke="#4564A7" stroke-width="10" stroke-miterlimit="10" d="M330.25,251.128
			c20.686-29.251,52.016-5.319,91.698,22.741c39.682,28.059,74.087,47.644,52.005,78.874"/>
		<path fill="none" stroke="#4564A7" stroke-width="10" stroke-miterlimit="10" d="M473.953,352.743
			c-22.083,31.229-52.018,5.319-91.699-22.74s-72.688-49.624-52.004-78.875"/>
		
			<line fill="none" stroke="#4564A7" stroke-width="10" stroke-miterlimit="10" x1="418.354" y1="272.419" x2="382.023" y2="325.134"/>
		<path fill="#4564A7" d="M380.865,309.562c-3.823,5.407-9.006,0.921-15.876-3.938s-12.586-8.592-9.004-13.656
			c3.581-5.064,9.006-0.92,15.875,3.938C378.731,300.765,384.688,304.155,380.865,309.562z"/>
	</g>
	<path fill="none" stroke="#4564A7" stroke-width="10" stroke-miterlimit="10" d="M235.952,85.21
		c0.701-0.982-10.819,35.272,9.035,39.48C305.5,103.5,304.5,407.5,270.22,400.693c-29.729,3.808-123.216,2.332-123.216,2.332"/>
	<path fill="none" stroke="#4564A7" stroke-width="10" stroke-miterlimit="10" d="M59.788,85.21
		c-0.701-0.982,10.819,35.272-9.035,39.48C-9.761,103.5-8.761,407.5,25.52,400.693c29.729,3.808,123.216,2.332,123.216,2.332"/>
	<polygon fill="none" stroke="#4564A7" stroke-width="10" stroke-miterlimit="10" points="170.5,225.5 170.5,172.5 121.5,172.5 
		121.5,225.5 66.051,226.132 66.051,278.5 118.275,278.5 118.275,334.5 170.5,334.5 170.5,276.5 229.5,276.5 229.5,225.553 	"/>
	<path fill="none" stroke="#4564A7" stroke-width="10" stroke-miterlimit="10" d="M481.271,364.967
		c0,38.248-39.399,34.375-88,34.375s-88,1.452-88-34.375c0-35.826,39.399-34.374,88-34.374S481.271,326.719,481.271,364.967z"/>
	<line fill="none" stroke="#4564A7" stroke-width="10" stroke-miterlimit="10" x1="389.5" y1="331.482" x2="390.271" y2="395.5"/>
	<path fill="#4564A7" d="M380.335,383.455c0,6.623-6.821,5.952-15.236,5.952c-8.414,0-15.236,0.251-15.236-5.952
		s6.822-5.951,15.236-5.951C373.514,377.504,380.335,376.833,380.335,383.455z"/>
	<path fill="#FFFFFF" d="M394.662,334.5v61c0,0,41.1,3.336,72.469-9.332c14.38-13.564,12.05-32.511,0-42.668
		S394.662,334.5,394.662,334.5z"/>
</g>
</svg>
