<?xml version="1.0" encoding="utf-8"?>
<!-- Generator: Adobe Illustrator 16.0.0, SVG Export Plug-In . SVG Version: 6.00 Build 0)  -->
<!DOCTYPE svg PUBLIC "-//W3C//DTD SVG 1.1//EN" "http://www.w3.org/Graphics/SVG/1.1/DTD/svg11.dtd">
<svg version="1.1" id="Layer_1" xmlns="http://www.w3.org/2000/svg" xmlns:xlink="http://www.w3.org/1999/xlink" x="0px" y="0px"
	 width="566.93px" height="566.93px" viewBox="0 0 566.93 566.93" enable-background="new 0 0 566.93 566.93" xml:space="preserve">
<g>
	<path fill="none" stroke="#2C6899" stroke-width="10" stroke-miterlimit="10" d="M323.02,205.534c0,0-54.492-0.784-83.699,48.299
		c-29.207,49.082-10.458,101.354-10.458,101.354s-56.871-36.318-139.648-94.512C6.438,202.482,80.677,70.003,184.14,127.033
		C287.604,184.062,323.02,205.534,323.02,205.534z"/>
	<path fill="#F29933" stroke="#2C6899" stroke-width="10" stroke-miterlimit="10" d="M346.22,222.988
		c-49.626-6.895-115.122,89.204-92.346,143.09c37.42,24.145-4.983,4.532,141.473,89.896
		c83.045,48.572,178.957-93.502,89.824-150.088C363.847,228.865,393.842,252.469,346.22,222.988z"/>
	<path fill="#FFFFFF" d="M406.641,282.517c5.725,3.34,7.657,10.688,4.318,16.413l-3.779,6.476
		c-3.339,5.726-10.687,7.659-16.413,4.319l-98.463-57.44c-5.724-3.34-7.657-10.688-4.317-16.413l3.778-6.477
		c3.341-5.724,10.688-7.658,16.413-4.318L406.641,282.517z"/>
</g>
</svg>
