<?xml version="1.0" encoding="utf-8"?>
<!-- Generator: Adobe Illustrator 16.0.0, SVG Export Plug-In . SVG Version: 6.00 Build 0)  -->
<!DOCTYPE svg PUBLIC "-//W3C//DTD SVG 1.1//EN" "http://www.w3.org/Graphics/SVG/1.1/DTD/svg11.dtd">
<svg version="1.1" id="Layer_1" xmlns="http://www.w3.org/2000/svg" xmlns:xlink="http://www.w3.org/1999/xlink" x="0px" y="0px"
	 width="566.93px" height="566.93px" viewBox="0 0 566.93 566.93" enable-background="new 0 0 566.93 566.93" xml:space="preserve">
<path display="none" d="M209.516,525.081h-0.655c-7.93-0.729-13.547-3.847-17.477-9.055l-60.963-81.3L49.132,373.75
	c-4.633-2.826-8.222-8.811-9.008-15.82c-0.667-6.056,1.384-12.224,5.783-17.349l32.065-32.453c4.175-4.149,10.016-6.508,16.08-6.508
	c1.501,0,3.848,0,6.439,0.926l56.261,15.378l68.716-68.717L72.847,165.396c-5.993-3.33-10.192-9.171-11.564-16.044
	c-0.916-7.846,1.536-15.012,6.24-19.703l41.987-41.988c6.638-5.864,14.789-7.717,21.778-5.641l210.946,50.42l47.733-47.734
	c25.591-25.591,62.453-43.465,89.651-43.465c13.3,0,24.465,4.152,32.3,11.974c13.113,13.112,15.539,34.728,6.838,60.835
	c-7.132,21.405-21.464,44.25-38.327,61.116l-48.11,48.109l50.996,221.818c2.053,8.224-1.128,17.299-8.151,22.918l-42.281,31.701
	c-3.366,2.732-8.256,4.375-13.429,4.375c-0.973,0-2.933,0-5.454-0.752c-6.709-1.641-12.045-5.98-14.695-11.949l-83.377-151.721
	l-68.716,68.719l15.552,56.904c2.041,7.506,0.142,15.27-5.242,21.322l-31.971,31.993
	C221.421,522.735,215.581,525.081,209.516,525.081z M64.836,355.561l83.764,63.379l61.141,81.512l29.638-29.625l-19-69.561
	l101.203-101.205l98.458,179.28l39.665-29.768l-53.773-233.874l57.516-57.516c14.355-14.355,26.519-33.695,32.522-51.733
	c5.513-16.537,5.125-30.094-1.031-36.251c-3.271-3.272-8.433-4.938-15.316-4.938c-21.005,0-51.559,15.317-72.67,36.429
	l-57.233,57.233l-223.965-53.551l-39.841,39.853l179.175,98.341L163.881,344.77l-69.466-18.977L64.836,355.561z M209.516,527.347
	l-0.862-0.009c-8.368-0.769-14.608-4.021-19.078-9.947l-60.773-81.045l-80.946-60.719c-5.324-3.3-9.146-9.973-9.984-17.445
	c-0.739-6.695,1.504-13.47,6.315-19.076l0.107-0.116l32.065-32.452c4.596-4.569,11.039-7.182,17.691-7.182
	c1.571,0,4.19,0,7.117,1.027l54.911,15.008l65.65-65.649L71.756,167.383c-6.569-3.65-11.193-10.058-12.696-17.587l-0.029-0.181
	c-0.977-8.367,1.535-16.229,6.89-21.57l42.087-42.082c5.132-4.533,11.368-7.03,17.562-7.03c2.156,0,4.276,0.302,6.303,0.896
	l209.655,50.111l46.838-46.838c25.981-25.982,63.508-44.128,91.254-44.128c13.896,0,25.62,4.37,33.901,12.637
	c13.753,13.752,16.375,36.181,7.387,63.155c-7.235,21.715-21.77,44.893-38.876,62.001l-47.225,47.223l50.717,220.595
	c2.275,9.118-1.231,19.024-8.944,25.195l-0.057,0.044L434.275,501.5c-3.819,3.084-9.219,4.853-14.821,4.853
	c-1.052,0-3.234,0-6.047-0.828c-7.322-1.809-13.195-6.589-16.136-13.128l-81.877-148.992l-65.65,65.652l15.205,55.637
	c2.247,8.266,0.156,16.803-5.735,23.426l-0.09,0.096l-31.971,31.994C222.616,524.745,216.188,527.347,209.516,527.347z
	 M208.966,522.814h0.55c5.479,0,10.739-2.117,14.431-5.812l31.923-31.946c4.822-5.449,6.538-12.436,4.706-19.173l-15.898-58.173
	l71.781-71.783l84.916,154.537c2.357,5.311,7.155,9.198,13.162,10.668l0.109,0.03c2.203,0.656,3.896,0.656,4.806,0.656
	c4.6,0,8.974-1.409,12.001-3.868l0.069-0.054l42.251-31.68c6.314-5.068,9.196-13.143,7.342-20.578l-51.286-223.08l48.998-48.997
	c16.633-16.635,30.757-39.15,37.781-60.23c8.418-25.26,6.184-46.042-6.291-58.516c-7.411-7.399-18.026-11.311-30.698-11.311
	c-26.641,0-62.848,17.601-88.049,42.801l-48.631,48.631L130.643,84.191c-1.625-0.483-3.332-0.728-5.073-0.728
	c-5.066,0-10.216,2.077-14.508,5.849L69.125,131.25c-4.35,4.337-6.388,10.801-5.602,17.747c1.261,6.184,5.057,11.435,10.424,14.418
	l155.257,85.26l-71.781,71.783l-57.696-15.774c-2.221-0.795-4.3-0.795-5.676-0.795c-5.464,0-10.742,2.133-14.482,5.85l-31.993,32.38
	c-3.95,4.632-5.796,10.155-5.199,15.565c0.679,6.059,3.794,11.607,7.935,14.135l0.179,0.121l81.548,61.171l61.157,81.559
	C196.833,519.486,201.993,522.153,208.966,522.814z M209.495,503.899l-62.517-83.345L61.4,355.803l32.338-32.543l69.471,18.977
	l98.139-98.136L82.174,145.757l42.873-42.885l223.965,53.551l56.337-56.337c21.493-21.493,52.729-37.092,74.271-37.092
	c7.511,0,13.203,1.885,16.919,5.602c6.78,6.78,7.371,21.199,1.58,38.571c-6.108,18.35-18.473,38.021-33.071,52.62l-56.627,56.628
	l53.823,234.087l-42.935,32.22l-98.262-178.923l-98.138,98.139l19,69.562L209.495,503.899z M68.271,355.318l81.95,62.007
	l0.191,0.255l59.573,79.421l26.859-26.848l-19-69.561l104.271-104.271l98.654,179.639l36.396-27.314L403.44,214.985l58.401-58.403
	c14.125-14.125,26.078-33.132,31.977-50.848c5.156-15.475,4.972-28.477-0.484-33.934c-2.836-2.836-7.45-4.274-13.715-4.274
	c-20.454,0-50.343,15.041-71.066,35.765l-58.13,58.13L126.459,107.87l-36.81,36.82l179.175,98.343L164.553,347.302l-69.461-18.974
	L68.271,355.318z"/>
<g>
	<defs>
		<path id="SVGID_1_" d="M512.393,421.965c0,6.627-5.373,12-12,12h-444c-6.627,0-12-5.373-12-12V129.91c0-6.627,5.373-12,12-12h444
			c6.627,0,12,5.373,12,12V421.965z"/>
	</defs>
	<clipPath id="SVGID_2_">
		<use xlink:href="#SVGID_1_"  overflow="visible"/>
	</clipPath>
	<g clip-path="url(#SVGID_2_)">
		<path fill="none" stroke="#EA3B0C" stroke-width="47" stroke-miterlimit="10" d="M-10.607,186.965
			c0,0,57.092-39.626,156.046-40.313s176.892,41.968,262.923,30.141s123.031-30.828,123.031-30.828"/>
		<path fill="none" stroke="#F79510" stroke-width="47" stroke-miterlimit="10" d="M2.893,231.644c0,0,57.092-39.626,156.046-40.313
			s176.892,41.968,262.923,30.141s105.031-24.828,105.031-24.828"/>
		<path fill="none" stroke="#F8E85F" stroke-width="47" stroke-miterlimit="10" d="M16.358,276.625
			c0,0,57.092-39.625,156.046-40.312c98.954-0.687,176.891,41.969,262.922,30.141c86.031-11.828,105.031-24.828,105.031-24.828"/>
		<path fill="none" stroke="#73BE22" stroke-width="47" stroke-miterlimit="10" d="M32.93,320.945c0,0,57.092-39.625,156.046-40.312
			s176.892,41.969,262.923,30.141s105.031-24.828,105.031-24.828"/>
		<path fill="none" stroke="#1AA9CB" stroke-width="47" stroke-miterlimit="10" d="M32.93,367.266c0,0,57.092-39.625,156.046-40.312
			s176.892,41.969,262.923,30.141s105.031-24.828,105.031-24.828"/>
		<path fill="none" stroke="#7E79B8" stroke-width="47" stroke-miterlimit="10" d="M33.93,413.587c0,0,57.092-39.625,156.046-40.312
			s176.892,41.969,262.923,30.141s105.031-24.828,105.031-24.828"/>
	</g>
</g>
</svg>
