<svg class="icon" style="width: 1em; height: 1em;vertical-align: middle;fill: currentColor;overflow: hidden;" viewBox="0 0 1024 1024" version="1.1" xmlns="http://www.w3.org/2000/svg"><path d="M212.408 655.368L50.848 493.808C32.24 475.2 30.56 457.608 32.424 446.128c5.016-30.88 39.504-48.952 43.424-50.912a16.008 16.008 0 0 1 14.312 28.624c-6.12 3.112-24.16 14.88-26.16 27.464-0.352 2.224-1.432 8.984 9.472 19.88L235.04 632.744l-22.632 22.624zM415.672 452.112L254.104 290.544c-10.92-10.912-17.688-9.832-19.928-9.472-12.96 2.104-24.92 21.168-27.416 26.16a16.008 16.008 0 0 1-28.632-14.312c1.96-3.912 20.032-38.424 50.912-43.432 11.496-1.872 29.08-0.168 47.68 18.432l161.56 161.56-22.608 22.632z" fill="#324654" /><path d="M168.64 765.504a381.336 94.504 0 1 0 762.672 0 381.336 94.504 0 1 0-762.672 0Z" fill="#B8CBCD" /><path d="M620.632 795.416c-43.768 0-88.088-17.064-122.016-51l-78.176-78.176a24 24 0 1 1 33.944-33.936l78.184 78.168c47.576 47.568 123.088 49.48 168.32 4.256 22.064-22.064 33.704-51.712 32.792-83.496-0.912-31.792-14.064-61.928-37.008-84.872l-172-171.984c-31.512-31.52-48.392-73.392-47.504-117.896 0.864-43.808 18.76-85.336 50.384-116.96 65.16-65.168 171.184-65.176 236.352 0l156.408 156.408a23.984 23.984 0 0 1 0 33.936 23.984 23.984 0 0 1-33.936 0L729.968 173.456c-46.456-46.44-122.04-46.44-168.48 0-22.816 22.816-35.712 52.632-36.336 83.968a113.248 113.248 0 0 0 33.456 83.016l171.984 171.992c31.648 31.64 49.784 73.344 51.048 117.432 1.304 45.128-15.328 87.32-46.832 118.816-31.208 31.208-72.448 46.736-114.176 46.736z" fill="#324654" /><path d="M333.904 716.128l-2.2-0.016c-45.616-0.552-88.144-18.264-119.744-49.864a23.984 23.984 0 0 1 0-33.936 23.984 23.984 0 0 1 33.936 0c22.36 22.36 53.848 35.416 86.392 35.808 32.84 0.392 63.48-11.664 85.8-33.976 22.208-22.2 34.088-52.432 33.464-85.12-0.624-32.208-13.864-63.568-36.328-86.04a23.984 23.984 0 0 1 0-33.936 23.984 23.984 0 0 1 33.936 0c31.624 31.616 49.512 73.896 50.384 119.056 0.88 45.848-15.992 88.464-47.512 119.976-31.032 31.032-72.904 48.048-118.128 48.048z" fill="#324654" /><path d="M903.344 312.888m-81.296 0a81.296 81.296 0 1 0 162.592 0 81.296 81.296 0 1 0-162.592 0Z" fill="#B9E3ED" /><path d="M903.344 418.184c-58.064 0-105.296-47.232-105.296-105.288 0-58.064 47.232-105.304 105.296-105.304 58.064 0 105.296 47.24 105.296 105.304-0.024 58.064-47.264 105.288-105.296 105.288z m0-162.592c-31.592 0-57.296 25.704-57.296 57.304 0 31.584 25.704 57.288 57.296 57.288 31.584 0 57.288-25.704 57.296-57.296 0-31.592-25.704-57.296-57.296-57.296z" fill="#324654" /><path d="M903.344 312.896m-23.968 0a23.968 23.968 0 1 0 47.936 0 23.968 23.968 0 1 0-47.936 0Z" fill="#324654" /><path d="M72.596561 419.918016a22.112 25.792 44.999 1 0 36.47476-36.476033 22.112 25.792 44.999 1 0-36.47476 36.476033Z" fill="#324654" /><path d="M161.174336 331.374987a22.112 25.8 44.999 1 0 36.486073-36.487346 22.112 25.8 44.999 1 0-36.486073 36.487346Z" fill="#324654" /></svg>