<svg class="icon" style="width: 1em; height: 1em;vertical-align: middle;fill: currentColor;overflow: hidden;" viewBox="0 0 1024 1024" version="1.1" xmlns="http://www.w3.org/2000/svg"><path d="M378.432447 948.411441l-1.183965 0c-14.322194-1.313925-24.469298-6.947226-31.565926-16.35448l-110.112863-146.844439L88.743672 675.076122c-8.368598-5.104251-14.85022-15.911388-16.269545-28.576849-1.206478-10.93505 2.499937-22.076808 10.444886-31.334659l57.916061-58.617026c7.541767-7.495718 18.09103-11.753695 29.043477-11.753695 2.711761 0 6.949272 0 11.629875 1.673106l101.620445 27.774577 124.116809-124.117832L131.578246 298.741965c-10.825556-6.014994-18.409279-16.565281-20.887726-28.980032-1.653663-14.171768 2.77316-27.114544 11.270694-35.58752l75.838246-75.839269c11.989055-10.591219 26.712385-13.938454 39.336914-10.188037l381.01476 91.069135 86.21764-86.218664c46.223764-46.222741 112.804159-78.507028 161.931043-78.507028 24.022113 0 44.188408 7.498788 58.340733 21.627577 23.684422 23.683399 28.066219 62.7256 12.351306 109.881596-12.882402 38.661531-38.770002 79.926354-69.228711 110.389156l-86.899162 86.896092 92.110861 400.652006c3.706415 14.851243-2.037403 31.245631-14.72333 41.394782l-76.369342 57.259098c-6.080485 4.936429-14.912641 7.90197-24.255427 7.90197-1.757017 0-5.296633 0-9.851369-1.356904-12.117992-2.963495-21.756513-10.80202-26.543539-21.583574L570.635957 613.511975l-124.116809 124.119879 28.089755 102.782921c3.685949 13.556761 0.255827 27.580149-9.468652 38.512129l-57.746192 57.789171C399.936203 944.174953 389.38694 948.411441 378.432447 948.411441zM117.107673 642.219807l151.295821 114.477264 110.433158 147.225109 53.532217-53.507658-34.31862-125.641535 182.797279-182.799326 177.837314 323.821153 71.644737-53.767578L733.202473 389.600299l103.883999-103.887069c25.930579-25.928532 47.898917-60.861136 58.743916-93.442182 9.955746-29.868261 9.257851-54.357002-1.864464-65.478294-5.90857-5.910617-15.229866-8.919137-27.665083-8.919137-37.939077 0-93.124957 27.66713-131.256416 65.798589L631.666962 287.048645l-404.529313-96.725972-71.961962 71.983451L478.804459 439.932638 296.006156 622.727871l-125.471666-34.273595L117.107673 642.219807zM378.432447 952.504666l-1.557472-0.017396c-15.115256-1.38658-26.38595-7.264451-34.459836-17.966187L232.646106 788.136108 86.439186 678.464289c-9.617032-5.959735-16.520255-18.011212-18.032702-31.508621-1.334391-12.096503 2.716878-24.330128 11.405771-34.455743l0.194428-0.211824 57.916061-58.617026c8.302083-8.251941 19.939121-12.970406 31.954783-12.970406 2.836605 0 7.567349 0 12.854772 1.857301l99.180883 27.107381 118.578676-118.579699L129.607358 302.329676c-11.864212-6.592139-20.216437-18.166755-22.931269-31.766494l-0.052189-0.327458c-1.763157-15.113209 2.77316-29.313629 12.44545-38.960337l76.019371-76.009138c9.269108-8.187473 20.533662-12.697183 31.719422-12.697183 3.894703 0 7.723915 0.545422 11.384281 1.619894l378.683668 90.511433 84.59877-84.599793c46.929846-46.928822 114.709555-79.70532 164.824953-79.70532 25.101701 0 46.275953 7.892761 61.232596 22.824845 24.840758 24.839735 29.578666 65.35038 13.34289 114.072035-13.068643 39.222303-39.318494 81.086783-70.218248 111.988584l-85.296665 85.294618 91.603301 398.442688c4.111644 16.470113-2.223644 34.361599-16.154935 45.508473l-0.102331 0.078795-76.308967 57.214073c-6.898107 5.570879-16.650215 8.764618-26.770713 8.764618-1.90028 0-5.842055 0-10.921747-1.49812-13.225209-3.264347-23.833825-11.897981-29.142737-23.712051L569.674049 620.262726l-118.580722 118.582769 27.462468 100.490715c4.058432 14.930037 0.282433 30.350239-10.358929 42.311665l-0.162706 0.172939-57.746192 57.789171C402.094356 947.80462 390.483924 952.504666 378.432447 952.504666zM377.438816 944.318216l0.994654 0c9.896394 0 19.396769-3.825119 26.065655-10.496052l57.659211-57.70219c8.710382-9.844206 11.809977-22.460548 8.500605-34.630728l-28.714995-105.072057 129.652895-129.655965 153.376203 279.128255c4.259 9.590426 12.924357 16.613376 23.774473 19.267832l0.196475 0.054235c3.982708 1.186012 7.039323 1.186012 8.68173 1.186012 8.306176 0 16.207124-2.545986 21.675672-6.986111l0.124843-0.097214 76.315106-57.219189c11.406794-9.155521 16.612353-23.738657 13.261025-37.168528l-92.635817-402.935002 88.50166-88.499613c30.042223-30.046317 55.553247-70.714552 68.240197-108.788705 15.204283-45.626153 11.169387-83.162048-11.362792-105.693204-13.385868-13.364379-32.559557-20.429285-55.446823-20.429285-48.119951 0-113.518427 31.79003-159.037133 77.307713l-87.836511 87.837534-383.455345-91.658559c-2.935865-0.871857-6.018064-1.313925-9.162684-1.313925-9.150404 0-18.453281 3.751441-26.205848 10.56359l-75.747171 75.748195c-7.855922 7.834432-11.537777 19.508309-10.118452 32.054043 2.276856 11.169387 9.133008 20.654412 18.828834 26.042119l280.428877 153.99735L284.341488 578.815755l-104.211457-28.494984c-4.012384-1.433652-7.766894-1.433652-10.252505-1.433652-9.869788 0-19.402909 3.850701-26.157753 10.56359l-57.787124 58.486042c-7.133468 8.365528-10.468422 18.34481-9.390881 28.114314 1.225921 10.943236 6.853082 20.967544 14.332427 25.530466l0.324388 0.220011 147.293671 110.487394 110.463858 147.31209C355.524714 938.306292 364.843964 943.124018 377.438816 944.318216zM378.393561 910.153092l-112.918769-150.538575L110.902344 642.657782l58.409294-58.779731 125.479853 34.275641 177.26017-177.2571L148.424936 263.269056l77.437673-77.460186 404.529313 96.725972 101.757568-101.757568c38.821167-38.821167 95.238085-66.99688 134.150326-66.99688 13.56597 0 23.848151 3.40454 30.560016 10.118452 12.245905 12.245905 13.31219 38.289048 2.852978 69.667709-11.033287 33.143864-33.363875 68.675102-59.733453 95.042633l-102.280478 102.283548 97.216135 422.812725-77.547167 58.196447-177.482227-323.175447L402.625452 725.986629l34.31862 125.641535L378.393561 910.153092zM123.313002 641.781832 271.33322 753.780649l0.344854 0.460488 107.60167 143.451156 48.513924-48.491411-34.31862-125.641535 188.334389-188.336436 178.192402 324.466859 65.741283-49.337685-97.03808-422.043199 105.486496-105.488543c25.51307-25.512047 47.102784-59.84397 57.754379-91.841731 9.31618-27.950586 8.980535-51.435463-0.874927-61.291948-5.121648-5.122671-13.455453-7.719822-24.771173-7.719822-36.945447 0-90.929965 27.167756-128.361483 64.599274L632.942001 291.562449l-404.52829-96.725972-66.48625 66.505693 323.628772 177.62856L297.219797 627.303073l-125.462456-34.271548L123.313002 641.781832z" /></svg>